<svg width="141" height="33" viewBox="0 0 141 33" fill="none" xmlns="http://www.w3.org/2000/svg">
<path d="M18.7302 9.91966C17.693 8.71139 16.4428 7.71161 15.0244 6.96532C14.0488 4.76438 11.8798 3.22916 9.36269 3.22916C6.8456 3.22916 4.68369 4.76438 3.71047 6.96532C2.29209 7.71161 1.04183 8.71376 0.0046812 9.91966C-0.161073 4.47297 4.09644 0 9.36506 0C14.6384 0 18.8888 4.47297 18.7302 9.91966Z" fill="url(#paint0_linear_63_183)"/>
<path d="M14.0297 14.1674C12.8954 12.8478 11.2237 12.002 9.36485 12.002C8.69473 12.002 8.04356 12.1158 7.43737 12.3219V8.97662C8.06724 8.84158 8.70894 8.77051 9.36485 8.77051C11.8109 8.77051 14.0368 9.73712 15.7038 11.3126C15.7961 11.4074 15.8932 11.4998 15.9856 11.5898C16.1916 11.7864 16.381 12.0044 16.5562 12.2295C16.6415 12.3385 16.7243 12.4474 16.8096 12.5635C16.8854 12.6559 16.954 12.7554 17.0227 12.8549C17.0582 12.9047 17.0843 12.9473 17.1127 12.99C17.1198 12.9971 17.1269 13.0113 17.134 13.0184C17.1814 13.0966 17.2382 13.1819 17.2855 13.2672C17.3613 13.3809 17.4229 13.4946 17.4868 13.6083C17.4939 13.6154 17.501 13.6225 17.501 13.6297C17.5697 13.7576 17.6384 13.8855 17.7023 14.0063C17.6881 14.0348 17.6739 14.0703 17.6478 14.113C17.6407 14.1343 17.6265 14.1485 17.6123 14.1769C17.591 14.2054 17.5697 14.248 17.5507 14.2906C17.4892 14.4044 17.4063 14.5394 17.3163 14.7029C17.295 14.7384 17.3069 14.8 17.3069 14.8C17.3069 14.8 17.2477 14.8237 17.2405 14.8308C16.999 15.2644 16.6675 15.833 16.2792 16.4987C14.4156 19.6852 11.2663 25.0229 9.94499 27.1362C9.67268 27.5698 9.05703 27.5698 8.78472 27.1362C7.46342 25.0253 4.31882 19.6923 2.46001 16.5034C2.07404 15.8353 1.74016 15.2596 1.49153 14.8284C1.48443 14.8213 1.47732 14.8071 1.47732 14.8C1.45601 14.7645 1.4347 14.736 1.41576 14.7005C1.39444 14.6579 1.37313 14.6223 1.34709 14.5868C1.28552 14.4731 1.22869 14.3736 1.18133 14.2883C1.16002 14.2456 1.13871 14.203 1.11977 14.1746C1.10556 14.1461 1.09845 14.1319 1.08425 14.1106C1.06294 14.0679 1.04162 14.0324 1.02979 14.004C1.09845 13.876 1.16002 13.7481 1.23106 13.6273C1.29973 13.5065 1.3755 13.3785 1.45127 13.2577C1.45838 13.2435 1.46548 13.2222 1.47969 13.2079C1.54126 13.1084 1.60992 13.0018 1.68096 12.9023C1.75674 12.7886 1.83961 12.6749 1.92249 12.5612C1.92249 12.5541 1.92959 12.5469 1.92959 12.5469C2.00537 12.4545 2.07404 12.3622 2.14271 12.2769C2.15691 12.2484 2.17823 12.2271 2.19717 12.2058C2.28005 12.0992 2.37003 11.9997 2.46001 11.9002C2.54999 11.7936 2.64707 11.6869 2.74416 11.5874L3.04252 11.2889L9.36722 21.9407C9.58507 21.6943 12.5023 16.7593 14.0297 14.1674Z" fill="url(#paint1_linear_63_183)"/>
<path d="M25.8859 18.0481C25.8859 16.7285 26.1298 15.506 26.6152 14.3736C27.1006 13.2435 27.7636 12.2626 28.6042 11.4311C29.4425 10.5995 30.4275 9.94798 31.557 9.47652C32.6865 9.00505 33.8871 8.77051 35.1586 8.77051C35.8643 8.77051 36.5344 8.83684 37.1714 8.97189C37.806 9.10456 38.4193 9.32252 39.0065 9.61867C39.5937 9.91718 40.1715 10.2939 40.7374 10.7488C41.3034 11.2036 41.8669 11.7533 42.4329 12.3977L40.5267 14.2101C39.0681 12.2792 37.2945 11.3126 35.2084 11.3126C34.2659 11.3126 33.3922 11.4856 32.5847 11.8315C31.7772 12.1774 31.074 12.6512 30.4773 13.2553C29.8805 13.8595 29.4141 14.5702 29.0778 15.3876C28.7392 16.2049 28.5711 17.091 28.5711 18.0481C28.5711 19.0219 28.7558 19.9174 29.1252 20.7324C29.4946 21.5497 29.98 22.251 30.5838 22.8409C31.1876 23.4285 31.8743 23.8881 32.6439 24.2198C33.4135 24.5491 34.1973 24.7149 34.9976 24.7149C35.734 24.7149 36.4184 24.5941 37.0459 24.3501C37.6734 24.1061 38.218 23.7815 38.6821 23.374C39.1438 22.9665 39.518 22.4832 39.7997 21.9264C40.0815 21.3697 40.2544 20.7845 40.3183 20.1709V20.1472H35.8927V17.6241H43.2356V18.2116C43.2356 19.562 43.0391 20.7892 42.6484 21.898C42.2553 23.0044 41.7036 23.9497 40.9884 24.7363C40.2733 25.5205 39.4043 26.1293 38.3766 26.5605C37.349 26.9917 36.2005 27.2073 34.9289 27.2073C33.6739 27.2073 32.4971 26.968 31.3984 26.4894C30.2997 26.0109 29.343 25.3546 28.5261 24.523C27.7092 23.6915 27.0675 22.7177 26.5962 21.6042C26.1227 20.4884 25.8859 19.3038 25.8859 18.0481Z" fill="#619B8A"/>
<path d="M50.7869 15.3638C51.618 15.3638 52.3639 15.5012 53.0222 15.776C53.6805 16.0508 54.2346 16.4465 54.6821 16.9653C55.1297 17.4842 55.4707 18.1073 55.7051 18.837C55.9395 19.5667 56.0579 20.3793 56.0579 21.2748V21.8861H48.033C48.1112 22.8124 48.4024 23.5468 48.9044 24.087C49.4064 24.6295 50.0884 24.8996 50.9527 24.8996C51.5802 24.8996 52.1177 24.7575 52.5652 24.4755C53.0128 24.1936 53.4319 23.7222 53.8249 23.0635L55.9419 24.3595C55.3925 25.3024 54.7011 26.0108 53.8699 26.4893C53.0388 26.9679 52.0348 27.2072 50.8579 27.2072C50.0268 27.2072 49.2691 27.065 48.5871 26.7831C47.9052 26.5012 47.325 26.1008 46.8467 25.5819C46.3684 25.0631 45.9942 24.44 45.729 23.7103C45.4615 22.9806 45.3289 22.1751 45.3289 21.2961C45.3289 20.4172 45.4591 19.6117 45.7172 18.882C45.9753 18.1523 46.3447 17.5292 46.823 17.0103C47.3013 16.4915 47.8791 16.0887 48.554 15.7973C49.2265 15.5083 49.9723 15.3638 50.7869 15.3638ZM48.1988 19.7657H53.4011C53.2922 19.0739 53.0056 18.5527 52.5415 18.1997C52.0798 17.8466 51.502 17.669 50.8106 17.669C50.1192 17.669 49.5556 17.8585 49.1152 18.2352C48.6771 18.6119 48.3716 19.1236 48.1988 19.7657Z" fill="#619B8A"/>
<path d="M57.7532 21.2037C57.7532 20.403 57.8953 19.6496 58.1771 18.9436C58.4589 18.2376 58.8638 17.6216 59.3895 17.0956C59.9151 16.5697 60.5426 16.1503 61.272 15.8352C62.0013 15.5225 62.8135 15.3638 63.7085 15.3638C64.6036 15.3638 65.4158 15.5178 66.1451 15.8234C66.8745 16.129 67.502 16.5507 68.0276 17.0838C68.5533 17.6168 68.9606 18.2447 69.2518 18.9673C69.5431 19.6899 69.6875 20.4669 69.6875 21.2985C69.6875 22.1301 69.5431 22.9072 69.2518 23.6298C68.9606 24.3524 68.5533 24.9754 68.0276 25.5014C67.502 26.0274 66.8697 26.4443 66.1333 26.7499C65.3969 27.0556 64.5728 27.2096 63.6612 27.2096C62.7827 27.2096 61.9776 27.0556 61.2483 26.7499C60.519 26.4443 59.8938 26.025 59.3776 25.4896C58.8591 24.9565 58.4589 24.3192 58.1771 23.5824C57.8953 22.8432 57.7532 22.0519 57.7532 21.2037ZM60.3887 21.2511C60.3887 22.367 60.6871 23.2531 61.2838 23.9117C61.8805 24.5703 62.688 24.8996 63.7085 24.8996C64.7125 24.8996 65.52 24.5703 66.1333 23.9117C66.7466 23.2531 67.0521 22.3812 67.0521 21.2985C67.0521 20.2324 66.749 19.3629 66.1451 18.6972C65.5413 18.0291 64.7291 17.6974 63.7085 17.6974C63.2231 17.6974 62.7756 17.7827 62.3659 17.9556C61.9587 18.1286 61.6058 18.375 61.3075 18.6972C61.0091 19.0194 60.7818 19.3961 60.6255 19.8273C60.4692 20.2585 60.3887 20.7323 60.3887 21.2511Z" fill="#619B8A"/>
<path d="M72.6996 15.6694V11.5708H75.2877V15.6671H77.2886V18.0931H75.2877V26.8756H72.6996V18.0955H70.8881V15.6694H72.6996Z" fill="#233D4D"/>
<path d="M78.2547 21.2511C78.2547 20.4195 78.392 19.6472 78.6667 18.9317C78.9414 18.2186 79.325 17.5979 79.8199 17.0719C80.3148 16.546 80.8949 16.1337 81.5603 15.8352C82.2281 15.5367 82.9526 15.3875 83.7364 15.3875C84.4421 15.3875 85.0932 15.5059 85.69 15.7405C86.2867 15.975 86.8668 16.3683 87.4304 16.9179H87.4541V15.6694H90.0422V26.8779H87.4541V25.6293H87.4304C86.8668 26.179 86.289 26.5794 85.7018 26.8305C85.1146 27.0816 84.4823 27.2072 83.8075 27.2072C83.0071 27.2072 82.266 27.0532 81.584 26.7476C80.902 26.4419 80.3124 26.0226 79.8199 25.4872C79.325 24.9541 78.9414 24.3263 78.6667 23.6037C78.3897 22.8835 78.2547 22.0969 78.2547 21.2511ZM80.8902 21.2511C80.8902 21.77 80.9636 22.2509 81.1128 22.6987C81.2619 23.1464 81.4774 23.535 81.7592 23.8643C82.041 24.1936 82.3915 24.4495 82.8058 24.6295C83.2226 24.8096 83.6891 24.8996 84.2053 24.8996C84.7238 24.8996 85.1903 24.8096 85.6047 24.6295C86.0215 24.4495 86.3767 24.1984 86.675 23.8761C86.9734 23.5539 87.2054 23.1749 87.3688 22.7342C87.5346 22.2959 87.6151 21.815 87.6151 21.2985C87.6151 20.7962 87.5322 20.3248 87.3688 19.8865C87.2031 19.4482 86.9734 19.0668 86.675 18.7446C86.3767 18.4223 86.0191 18.1665 85.6047 17.9793C85.188 17.7898 84.7309 17.6974 84.2289 17.6974C83.727 17.6974 83.2676 17.7921 82.8508 17.9793C82.4341 18.1688 82.0813 18.42 81.7924 18.7327C81.5011 19.0478 81.2785 19.4198 81.1222 19.8509C80.9683 20.2821 80.8902 20.7489 80.8902 21.2511Z" fill="#233D4D"/>
<path d="M97.7166 15.3875C98.4222 15.3875 99.0734 15.5059 99.6701 15.7405C100.267 15.975 100.847 16.3683 101.411 16.9179H101.434V15.6694H104.022V26.8542C104.022 28.8016 103.563 30.3108 102.647 31.3864C101.728 32.462 100.312 32.9998 98.3985 32.9998C96.7813 32.9998 95.4955 32.6278 94.5388 31.8815C93.5822 31.1353 93.04 30.0407 92.9145 28.5955L95.5026 28.361C95.6754 29.1925 95.9856 29.7848 96.4332 30.1378C96.8807 30.4908 97.5437 30.6685 98.4222 30.6685C100.43 30.6685 101.434 29.5053 101.434 27.1835V25.6293H101.411C100.407 26.6812 99.1989 27.2072 97.7853 27.2072C97.0488 27.2072 96.3645 27.0532 95.737 26.7476C95.1095 26.4419 94.5673 26.0226 94.1126 25.4872C93.658 24.9541 93.3004 24.3263 93.0423 23.6037C92.7842 22.8811 92.654 22.0969 92.654 21.2488C92.654 20.4172 92.7842 19.6448 93.0423 18.9293C93.3004 18.2162 93.658 17.5955 94.1126 17.0696C94.5673 16.5436 95.1 16.1314 95.7133 15.8329C96.329 15.5367 96.9967 15.3875 97.7166 15.3875ZM98.4009 24.8996C98.8863 24.8996 99.3268 24.8096 99.7198 24.6295C100.113 24.4495 100.449 24.1984 100.731 23.8761C101.013 23.5539 101.228 23.1749 101.377 22.7342C101.527 22.2959 101.6 21.815 101.6 21.2985C101.6 20.7962 101.524 20.3248 101.377 19.8865C101.228 19.4482 101.013 19.0668 100.731 18.7446C100.449 18.4223 100.111 18.1665 99.7198 17.9793C99.3268 17.7898 98.8958 17.6974 98.4246 17.6974C97.9534 17.6974 97.5272 17.7921 97.1412 17.9793C96.7576 18.1688 96.4261 18.42 96.1514 18.7327C95.8767 19.0478 95.666 19.4198 95.5168 19.8509C95.3676 20.2821 95.2942 20.7489 95.2942 21.2511C95.2942 21.77 95.3652 22.2509 95.505 22.6987C95.647 23.1464 95.8507 23.535 96.1159 23.8643C96.3835 24.1936 96.7079 24.4495 97.0938 24.6295C97.4774 24.8096 97.9131 24.8996 98.4009 24.8996Z" fill="#233D4D"/>
<path d="M111.697 15.3875C112.402 15.3875 113.054 15.5059 113.65 15.7405C114.247 15.975 114.827 16.3683 115.391 16.9179H115.414V15.6694H118.003V26.8542C118.003 28.8016 117.543 30.3108 116.627 31.3864C115.708 32.462 114.292 32.9998 112.379 32.9998C110.761 32.9998 109.476 32.6278 108.519 31.8815C107.562 31.1353 107.02 30.0407 106.895 28.5955L109.483 28.361C109.656 29.1925 109.966 29.7848 110.413 30.1378C110.861 30.4908 111.524 30.6685 112.402 30.6685C114.41 30.6685 115.414 29.5053 115.414 27.1835V25.6293H115.391C114.387 26.6812 113.179 27.2072 111.765 27.2072C111.029 27.2072 110.345 27.0532 109.717 26.7476C109.09 26.4419 108.547 26.0226 108.093 25.4872C107.638 24.9541 107.281 24.3263 107.022 23.6037C106.764 22.8811 106.634 22.0969 106.634 21.2488C106.634 20.4172 106.764 19.6448 107.022 18.9293C107.281 18.2162 107.638 17.5955 108.093 17.0696C108.547 16.5436 109.08 16.1314 109.694 15.8329C110.309 15.5367 110.977 15.3875 111.697 15.3875ZM112.381 24.8996C112.867 24.8996 113.307 24.8096 113.7 24.6295C114.093 24.4495 114.429 24.1984 114.711 23.8761C114.993 23.5539 115.208 23.1749 115.358 22.7342C115.507 22.2959 115.58 21.815 115.58 21.2985C115.58 20.7962 115.504 20.3248 115.358 19.8865C115.208 19.4482 114.993 19.0668 114.711 18.7446C114.429 18.4223 114.091 18.1665 113.7 17.9793C113.307 17.7898 112.876 17.6974 112.405 17.6974C111.934 17.6974 111.507 17.7921 111.121 17.9793C110.738 18.1688 110.406 18.42 110.132 18.7327C109.857 19.0478 109.646 19.4198 109.497 19.8509C109.348 20.2821 109.274 20.7489 109.274 21.2511C109.274 21.77 109.345 22.2509 109.485 22.6987C109.627 23.1464 109.831 23.535 110.096 23.8643C110.364 24.1936 110.688 24.4495 111.074 24.6295C111.458 24.8096 111.893 24.8996 112.381 24.8996Z" fill="#233D4D"/>
<path d="M125.937 15.3638C126.769 15.3638 127.515 15.5012 128.173 15.776C128.831 16.0508 129.385 16.4465 129.833 16.9653C130.28 17.4842 130.621 18.1073 130.856 18.837C131.09 19.5667 131.208 20.3793 131.208 21.2748V21.8861H123.184C123.262 22.8124 123.553 23.5468 124.055 24.087C124.557 24.6295 125.239 24.8996 126.103 24.8996C126.731 24.8996 127.268 24.7575 127.716 24.4755C128.163 24.1936 128.582 23.7222 128.976 23.0635L131.092 24.3595C130.543 25.3024 129.852 26.0108 129.021 26.4893C128.189 26.9679 127.185 27.2072 126.009 27.2072C125.177 27.2072 124.42 27.065 123.738 26.7831C123.056 26.5012 122.476 26.1008 121.997 25.5819C121.519 25.0631 121.145 24.44 120.88 23.7103C120.612 22.9806 120.479 22.1751 120.479 21.2961C120.479 20.4172 120.61 19.6117 120.868 18.882C121.126 18.1523 121.495 17.5292 121.974 17.0103C122.452 16.4915 123.03 16.0887 123.705 15.7973C124.375 15.5083 125.121 15.3638 125.937 15.3638ZM123.349 19.7657H128.552C128.443 19.0739 128.156 18.5527 127.692 18.1997C127.23 17.8466 126.653 17.669 125.961 17.669C125.27 17.669 124.706 17.8585 124.266 18.2352C123.825 18.6119 123.52 19.1236 123.349 19.7657Z" fill="#233D4D"/>
<path d="M133.681 15.6694H136.269V16.681H136.316C136.74 16.2261 137.135 15.8921 137.505 15.6812C137.874 15.4704 138.331 15.3638 138.883 15.3638C139.558 15.3638 140.263 15.5912 141 16.0461L139.823 18.401C139.338 18.0551 138.857 17.8822 138.388 17.8822C136.977 17.8822 136.271 18.9412 136.271 21.0616V26.8779H133.683V15.6694H133.681Z" fill="#233D4D"/>
<defs>
<linearGradient id="paint0_linear_63_183" x1="-5.46339e-05" y1="4.96005" x2="18.735" y2="4.96005" gradientUnits="userSpaceOnUse">
<stop stop-color="#659E89"/>
<stop offset="0.3212" stop-color="#619B8A"/>
<stop offset="1" stop-color="#A1C181"/>
</linearGradient>
<linearGradient id="paint1_linear_63_183" x1="3.67191" y1="22.0476" x2="15.0621" y2="10.6634" gradientUnits="userSpaceOnUse">
<stop stop-color="#FE7F2D"/>
<stop offset="1" stop-color="#FCCA46"/>
</linearGradient>
</defs>
</svg>
